<svg width="1092" height="696" viewBox="0 0 1092 696" fill="none" xmlns="http://www.w3.org/2000/svg">
<path d="M533.603 546.333H569.551V506.666C592.69 503.361 612.325 493.857 628.456 478.156C644.587 462.455 652.636 442.208 652.603 417.416C652.603 395.93 644.339 377.948 627.811 363.47C611.284 348.992 592.277 337.224 570.79 328.167V236.437C579.054 238.917 585.88 243.048 591.268 248.833C596.656 254.618 600.573 261.642 603.02 269.906L647.645 251.312C641.86 233.958 631.943 220.124 617.895 209.811C603.846 199.498 588.145 192.672 570.79 189.333V149.667H533.603V188.094C510.464 190.573 490.846 199.051 474.747 213.53C458.649 228.008 450.584 247.213 450.551 271.146C450.551 293.458 459.03 312.052 475.987 326.927C492.945 341.802 512.15 353.785 533.603 362.875V460.802C520.381 456.67 509.224 449.646 500.134 439.729C491.044 429.812 484.846 418.243 481.54 405.021L438.155 423.614C444.766 446.753 456.336 465.76 472.863 480.635C489.391 495.51 509.638 504.601 533.603 507.906V546.333ZM570.79 459.562V377.75C579.881 381.882 587.946 386.84 594.987 392.625C602.028 398.41 605.532 407.087 605.499 418.656C605.499 431.878 602.193 441.183 595.582 446.572C588.971 451.96 580.707 456.29 570.79 459.562ZM533.603 312.052C524.513 307.92 516.249 302.962 508.811 297.177C501.374 291.392 497.655 282.715 497.655 271.146C497.655 259.576 501.374 251.097 508.811 245.709C516.249 240.321 524.513 236.817 533.603 235.198V312.052ZM347.665 695.083C250.978 695.083 168.967 661.416 101.633 594.082C34.2987 526.748 0.615111 444.72 0.582056 348C0.549 251.279 34.2326 169.268 101.633 101.967C169.033 34.6662 251.044 0.982615 347.665 0.916504H744.332C841.02 0.916504 923.047 34.6001 990.414 101.967C1057.78 169.335 1091.45 251.345 1091.42 348C1091.38 444.654 1057.72 526.682 990.414 594.082C923.113 661.482 841.086 695.149 744.332 695.083H347.665Z" fill="#F5F5F5"/>
</svg>
