<svg width="551" height="771" viewBox="0 0 551 771" fill="none" xmlns="http://www.w3.org/2000/svg">
<path d="M165.625 220.688C158.34 220.688 151.353 223.582 146.202 228.733C141.05 233.884 138.156 240.871 138.156 248.156C138.156 255.441 141.05 262.428 146.202 267.58C151.353 272.731 158.34 275.625 165.625 275.625H385.375C392.66 275.625 399.647 272.731 404.798 267.58C409.95 262.428 412.844 255.441 412.844 248.156C412.844 240.871 409.95 233.884 404.798 228.733C399.647 223.582 392.66 220.688 385.375 220.688H165.625ZM165.625 385.5C158.34 385.5 151.353 388.394 146.202 393.545C141.05 398.697 138.156 405.684 138.156 412.969C138.156 420.254 141.05 427.241 146.202 432.392C151.353 437.544 158.34 440.438 165.625 440.438H385.375C392.66 440.438 399.647 437.544 404.798 432.392C409.95 427.241 412.844 420.254 412.844 412.969C412.844 405.684 409.95 398.697 404.798 393.545C399.647 388.394 392.66 385.5 385.375 385.5H165.625ZM165.625 550.312C158.34 550.312 151.353 553.207 146.202 558.358C141.05 563.509 138.156 570.496 138.156 577.781C138.156 585.066 141.05 592.053 146.202 597.205C151.353 602.356 158.34 605.25 165.625 605.25H193.094C200.379 605.25 207.366 602.356 212.517 597.205C217.668 592.053 220.562 585.066 220.562 577.781C220.562 570.496 217.668 563.509 212.517 558.358C207.366 553.207 200.379 550.312 193.094 550.312H165.625ZM110.688 0.9375C117.973 0.9375 124.959 3.83152 130.111 8.98291C135.262 14.1343 138.156 21.1211 138.156 28.4062V55.875H248.031V28.4062C248.031 21.1211 250.925 14.1343 256.077 8.98291C261.228 3.83152 268.215 0.9375 275.5 0.9375C282.785 0.9375 289.772 3.83152 294.923 8.98291C300.075 14.1343 302.969 21.1211 302.969 28.4062V55.875H412.844V28.4062C412.844 21.1211 415.738 14.1343 420.889 8.98291C426.041 3.83152 433.027 0.9375 440.312 0.9375C447.598 0.9375 454.584 3.83152 459.736 8.98291C464.887 14.1343 467.781 21.1211 467.781 28.4062V55.875C489.637 55.875 510.597 64.5571 526.051 80.0112C541.505 95.4654 550.188 116.426 550.188 138.281V500.1C550.168 521.948 541.474 542.894 526.015 558.333L338.458 745.945C323.01 761.383 302.065 770.058 280.225 770.062H83.2188C61.3633 770.062 40.4029 761.38 24.9487 745.926C9.49457 730.472 0.8125 709.512 0.8125 687.656V138.281C0.8125 116.426 9.49457 95.4654 24.9487 80.0112C40.4029 64.5571 61.3633 55.875 83.2188 55.875V28.4062C83.2188 21.1211 86.1128 14.1343 91.2642 8.98291C96.4156 3.83152 103.402 0.9375 110.688 0.9375ZM467.781 110.812H83.2188C75.9336 110.812 68.9468 113.707 63.7954 118.858C58.644 124.009 55.75 130.996 55.75 138.281V687.656C55.75 694.941 58.644 701.928 63.7954 707.08C68.9468 712.231 75.9336 715.125 83.2188 715.125H275.5V577.781C275.5 555.926 284.182 534.965 299.636 519.511C315.09 504.057 336.051 495.375 357.906 495.375H495.25V138.281C495.25 130.996 492.356 124.009 487.205 118.858C482.053 113.707 475.066 110.812 467.781 110.812ZM330.438 676.284L456.409 550.312H357.906C350.621 550.312 343.634 553.207 338.483 558.358C333.331 563.509 330.438 570.496 330.438 577.781V676.284Z" fill="white"/>
</svg>
