<svg width="879" height="879" viewBox="0 0 879 879" fill="none" xmlns="http://www.w3.org/2000/svg">
<path d="M695.875 146.5H622.625V109.875C622.625 100.161 618.766 90.8457 611.898 83.9772C605.029 77.1087 595.714 73.25 586 73.25C576.286 73.25 566.971 77.1087 560.102 83.9772C553.234 90.8457 549.375 100.161 549.375 109.875V146.5H329.625V109.875C329.625 100.161 325.766 90.8457 318.898 83.9772C312.029 77.1087 302.714 73.25 293 73.25C283.286 73.25 273.971 77.1087 267.102 83.9772C260.234 90.8457 256.375 100.161 256.375 109.875V146.5H183.125C153.984 146.5 126.037 158.076 105.432 178.682C84.8261 199.287 73.25 227.234 73.25 256.375V695.875C73.25 725.016 84.8261 752.963 105.432 773.568C126.037 794.174 153.984 805.75 183.125 805.75H695.875C725.016 805.75 752.963 794.174 773.568 773.568C794.174 752.963 805.75 725.016 805.75 695.875V256.375C805.75 227.234 794.174 199.287 773.568 178.682C752.963 158.076 725.016 146.5 695.875 146.5ZM732.5 695.875C732.5 705.589 728.641 714.904 721.773 721.773C714.904 728.641 705.589 732.5 695.875 732.5H183.125C173.411 732.5 164.096 728.641 157.227 721.773C150.359 714.904 146.5 705.589 146.5 695.875V439.5H732.5V695.875ZM732.5 366.25H146.5V256.375C146.5 246.661 150.359 237.346 157.227 230.477C164.096 223.609 173.411 219.75 183.125 219.75H256.375V256.375C256.375 266.089 260.234 275.404 267.102 282.273C273.971 289.141 283.286 293 293 293C302.714 293 312.029 289.141 318.898 282.273C325.766 275.404 329.625 266.089 329.625 256.375V219.75H549.375V256.375C549.375 266.089 553.234 275.404 560.102 282.273C566.971 289.141 576.286 293 586 293C595.714 293 605.029 289.141 611.898 282.273C618.766 275.404 622.625 266.089 622.625 256.375V219.75H695.875C705.589 219.75 714.904 223.609 721.773 230.477C728.641 237.346 732.5 246.661 732.5 256.375V366.25Z" fill="#FFFDFD"/>
</svg>
