<svg width="1045" height="1045" viewBox="0 0 1045 1045" fill="none" xmlns="http://www.w3.org/2000/svg">
<path d="M522.501 87.0835C545.597 87.0835 567.747 96.2583 584.078 112.59C600.41 128.921 609.585 151.071 609.585 174.167C609.585 206.388 592.168 234.69 566.043 249.494V304.792H609.585C690.42 304.792 767.945 336.904 825.105 394.063C882.264 451.223 914.376 528.748 914.376 609.583H957.918C969.466 609.583 980.541 614.171 988.707 622.337C996.872 630.502 1001.46 641.577 1001.46 653.125V783.75C1001.46 795.298 996.872 806.373 988.707 814.539C980.541 822.704 969.466 827.292 957.918 827.292H914.376V870.833C914.376 893.929 905.201 916.079 888.87 932.411C872.539 948.742 850.389 957.917 827.293 957.917H217.71C194.614 957.917 172.464 948.742 156.132 932.411C139.801 916.079 130.626 893.929 130.626 870.833V827.292H87.0846C75.5367 827.292 64.4617 822.704 56.296 814.539C48.1304 806.373 43.543 795.298 43.543 783.75V653.125C43.543 641.577 48.1304 630.502 56.296 622.337C64.4617 614.171 75.5367 609.583 87.0846 609.583H130.626C130.626 528.748 162.738 451.223 219.898 394.063C277.057 336.904 354.582 304.792 435.418 304.792H478.96V249.494C452.835 234.69 435.418 206.388 435.418 174.167C435.418 151.071 444.593 128.921 460.924 112.59C477.255 96.2583 499.405 87.0835 522.501 87.0835ZM326.564 566.042C297.694 566.042 270.006 577.51 249.592 597.924C229.178 618.339 217.71 646.026 217.71 674.896C217.71 703.766 229.178 731.453 249.592 751.868C270.006 772.282 297.694 783.75 326.564 783.75C355.434 783.75 383.121 772.282 403.535 751.868C423.949 731.453 435.418 703.766 435.418 674.896C435.418 646.026 423.949 618.339 403.535 597.924C383.121 577.51 355.434 566.042 326.564 566.042ZM718.439 566.042C689.569 566.042 661.881 577.51 641.467 597.924C621.053 618.339 609.585 646.026 609.585 674.896C609.585 703.766 621.053 731.453 641.467 751.868C661.881 772.282 689.569 783.75 718.439 783.75C747.309 783.75 774.996 772.282 795.41 751.868C815.824 731.453 827.293 703.766 827.293 674.896C827.293 646.026 815.824 618.339 795.41 597.924C774.996 577.51 747.309 566.042 718.439 566.042Z" fill="#F5F5F5"/>
</svg>
