<svg width="827" height="823" viewBox="0 0 1075.1 1069.9" fill="none" xmlns="http://www.w3.org/2000/svg">
  <g transform="translate(124.05 123.45)">
    <path d="M300.408 822.75L283.958 691.15C275.047 687.723 266.658 683.61 258.789 678.812C250.921 674.015 243.203 668.874 235.636 663.391L113.289 714.797L0.195312 519.453L106.092 439.259C105.407 434.461 105.064 429.842 105.064 425.4V397.641C105.064 393.172 105.407 388.539 106.092 383.741L0.195312 303.547L113.289 108.203L235.636 159.609C243.176 154.126 251.058 148.985 259.283 144.188C267.508 139.39 275.733 135.277 283.958 131.85L300.408 0.25H526.595L543.045 131.85C551.956 135.277 560.359 139.39 568.255 144.188C576.151 148.985 583.855 154.126 591.367 159.609L713.714 108.203L826.808 303.547L720.911 383.741C721.596 388.539 721.939 393.172 721.939 397.641V425.359C721.939 429.828 721.254 434.461 719.883 439.259L825.78 519.453L712.686 714.797L591.367 663.391C583.828 668.874 575.945 674.015 567.72 678.812C559.495 683.61 551.27 687.723 543.045 691.15L526.595 822.75H300.408ZM415.558 555.438C455.312 555.438 489.24 541.386 517.342 513.284C545.444 485.182 559.495 451.254 559.495 411.5C559.495 371.746 545.444 337.818 517.342 309.716C489.24 281.614 455.312 267.562 415.558 267.562C375.118 267.562 341.012 281.614 313.239 309.716C285.466 337.818 271.593 371.746 271.62 411.5C271.648 451.254 285.534 485.182 313.28 513.284C341.026 541.386 375.118 555.438 415.558 555.438Z" fill="#F5F5F5"/>
  </g>
</svg>
