<svg width="1638" height="1550" viewBox="0 0 1638 1550" fill="none" xmlns="http://www.w3.org/2000/svg">
<path d="M905.501 0L759.315 449.594L597.411 476.318L396.209 666.531L649.283 784.432L396.209 1550L952.657 919.625L1084.7 999.797L1263.89 919.625L1164.86 688.54L1535.83 297.11L1048.54 388.286L905.501 0Z" fill="#FEE3D8"/>
<path d="M498.382 1079.97C63.2345 855.016 206.014 683.776 685.436 352.13C378.812 416.279 3.494 663.027 0.0933236 872.465C-3.30735 1081.9 85.2175 1184.89 432.362 1263.89L498.382 1079.97Z" fill="#FEE3D8"/>
<path d="M1638 597.363C1533.62 869.768 1334.26 972.49 858.344 1112.98L721.59 1263.89C1320.44 1082.13 1567.53 951.322 1638 597.363Z" fill="#FEE3D8"/>
<path d="M1304.76 1079.97L1263.89 1112.98L1348.77 1168L1304.76 1079.97Z" fill="#FEE3D8"/>
</svg>
