<svg width="3913" height="7047" viewBox="0 0 3913 7047" fill="none" xmlns="http://www.w3.org/2000/svg">
<circle cx="1956.5" cy="3335.5" r="2809.5" fill="#512F41"/>
<path d="M1468.04 3078.04C2316.4 2229.67 3126.73 1504.09 3751 1016.8C4063.18 773.122 4328.6 589.211 4528.87 479.311C4629.05 424.333 4712.54 388.101 4777.19 372.049C4842.46 355.845 4885.73 360.872 4908.82 383.959C4931.9 407.046 4936.93 450.319 4920.73 515.588C4904.68 580.24 4868.44 663.723 4813.46 763.908C4703.57 964.174 4519.65 1229.6 4275.98 1541.77C3788.69 2166.04 3063.11 2976.38 2214.74 3824.74C1366.38 4673.11 556.042 5398.69 -68.2269 5885.98C-380.403 6129.65 -645.825 6313.57 -846.092 6423.46C-946.277 6478.44 -1029.76 6514.68 -1094.41 6530.73C-1159.68 6546.93 -1202.95 6541.9 -1226.04 6518.82C-1249.13 6495.73 -1254.16 6452.46 -1237.95 6387.19C-1221.9 6322.54 -1185.67 6239.05 -1130.69 6138.87C-1020.79 5938.6 -836.877 5673.18 -593.2 5361C-105.909 4736.73 619.671 3926.4 1468.04 3078.04Z" stroke="#DAB0AD" stroke-width="15"/>
<path d="M1579.96 3189.96C2428.32 2341.6 3240.45 1617.84 3867.63 1133.48C4181.26 891.268 4448.41 709.105 4650.58 601.143C4751.72 547.135 4836.2 511.917 4901.87 496.905C4968.08 481.773 5012.58 487.729 5036.89 512.038C5061.2 536.347 5067.16 580.855 5052.03 647.058C5037.01 712.735 5001.8 797.212 4947.79 898.35C4839.83 1100.53 4657.66 1367.67 4415.45 1681.31C3931.09 2308.48 3207.33 3120.62 2358.97 3968.97C1510.61 4817.33 698.482 5541.09 71.3032 6025.45C-242.329 6267.67 -509.476 6449.83 -711.652 6557.79C-812.791 6611.8 -897.267 6647.02 -962.945 6662.03C-1029.15 6677.16 -1073.66 6671.21 -1097.96 6646.9C-1122.27 6622.59 -1128.23 6578.08 -1113.1 6511.88C-1098.09 6446.2 -1062.87 6361.72 -1008.86 6260.58C-900.897 6058.41 -718.735 5791.26 -476.522 5477.63C7.83671 4850.45 731.599 4038.32 1579.96 3189.96Z" stroke="#DCB3AF" stroke-width="15"/>
</svg>
