<svg width="3913" height="5433" viewBox="0 0 3913 5433" fill="none" xmlns="http://www.w3.org/2000/svg">
<path d="M1956.5 0C3560.06 0 4860 1216.22 4860 2716.5C4860 4216.78 3560.06 5433 1956.5 5433C352.941 5433 -947 4216.78 -947 2716.5C-947 1216.22 352.941 0 1956.5 0Z" fill="url(#paint0_radial_301_87)"/>
<path d="M2069.46 2822.54C3050.47 2365.09 3920.15 1911.7 4533.19 1548.5C4839.76 1366.88 5081.89 1207.95 5241.64 1082.45C5321.57 1019.66 5380.48 965.538 5416.52 921.374C5434.56 899.272 5446.52 880.082 5452.67 863.895C5458.8 847.718 5458.78 835.549 5454.52 826.429C5450.27 817.308 5440.97 809.467 5424.63 803.77C5408.28 798.07 5385.89 794.898 5357.37 794.509C5300.37 793.732 5221.04 804.07 5121.56 824.939C4922.74 866.644 4645.35 949.976 4309.16 1068.07C3636.89 1304.23 2730.54 1679.01 1749.54 2136.46C768.537 2593.91 -101.151 3047.3 -714.188 3410.5C-1020.75 3592.12 -1262.89 3751.05 -1422.64 3876.55C-1502.57 3939.34 -1561.48 3993.46 -1597.52 4037.63C-1615.56 4059.73 -1627.52 4078.92 -1633.66 4095.11C-1639.8 4111.28 -1639.77 4123.45 -1635.52 4132.57C-1631.27 4141.69 -1621.96 4149.53 -1605.63 4155.23C-1589.28 4160.93 -1566.89 4164.1 -1538.36 4164.49C-1481.36 4165.27 -1402.04 4154.93 -1302.56 4134.06C-1103.74 4092.36 -826.35 4009.02 -490.16 3890.93C182.117 3654.77 1088.46 3279.99 2069.46 2822.54Z" stroke="#804C68" stroke-width="18"/>
<path d="M2069.46 2822.54C3050.47 2365.09 3920.15 1911.7 4533.19 1548.5C4839.76 1366.88 5081.89 1207.95 5241.64 1082.45C5321.57 1019.66 5380.48 965.538 5416.52 921.374C5434.56 899.272 5446.52 880.082 5452.67 863.895C5458.8 847.718 5458.78 835.549 5454.52 826.429C5450.27 817.308 5440.97 809.467 5424.63 803.77C5408.28 798.07 5385.89 794.898 5357.37 794.509C5300.37 793.732 5221.04 804.07 5121.56 824.939C4922.74 866.644 4645.35 949.976 4309.16 1068.07C3636.89 1304.23 2730.54 1679.01 1749.54 2136.46C768.537 2593.91 -101.151 3047.3 -714.188 3410.5C-1020.75 3592.12 -1262.89 3751.05 -1422.64 3876.55C-1502.57 3939.34 -1561.48 3993.46 -1597.52 4037.63C-1615.56 4059.73 -1627.52 4078.92 -1633.66 4095.11C-1639.8 4111.28 -1639.77 4123.45 -1635.52 4132.57C-1631.27 4141.69 -1621.96 4149.53 -1605.63 4155.23C-1589.28 4160.93 -1566.89 4164.1 -1538.36 4164.49C-1481.36 4165.27 -1402.04 4154.93 -1302.56 4134.06C-1103.74 4092.36 -826.35 4009.02 -490.16 3890.93C182.117 3654.77 1088.46 3279.99 2069.46 2822.54Z" stroke="#804C68" stroke-width="18"/>
<path d="M2396.91 2822.11C3377.91 2364.66 4247.6 1911.27 4860.64 1548.07C5167.2 1366.44 5409.34 1207.52 5569.08 1082.02C5649.02 1019.23 5707.93 965.107 5743.97 920.943C5762.01 898.841 5773.97 879.651 5780.11 863.463C5786.25 847.287 5786.22 835.118 5781.97 825.998C5777.72 816.877 5768.41 809.036 5752.07 803.339C5735.73 797.639 5713.34 794.467 5684.81 794.078C5627.81 793.3 5548.49 803.639 5449 824.507C5250.18 866.213 4972.8 949.545 4636.61 1067.64C3964.33 1303.8 3057.99 1678.58 2076.99 2136.03C1095.98 2593.48 226.295 3046.87 -386.743 3410.07C-693.308 3591.69 -935.444 3750.62 -1095.19 3876.12C-1175.12 3938.91 -1234.03 3993.03 -1270.08 4037.19C-1288.11 4059.3 -1300.08 4078.49 -1306.22 4094.67C-1312.35 4110.85 -1312.33 4123.02 -1308.08 4132.14C-1303.82 4141.26 -1294.52 4149.1 -1278.18 4154.8C-1261.83 4160.5 -1239.44 4163.67 -1210.92 4164.06C-1153.92 4164.84 -1074.59 4154.5 -975.11 4133.63C-776.291 4091.92 -498.904 4008.59 -162.715 3890.5C509.562 3654.34 1415.9 3279.56 2396.91 2822.11Z" stroke="#804C68" stroke-width="18"/>
<defs>
<radialGradient id="paint0_radial_301_87" cx="0" cy="0" r="1" gradientTransform="matrix(3452.04 2701.17 -2887.12 3784.67 -45.6852 1788.33)" gradientUnits="userSpaceOnUse">
<stop stop-color="#53295B"/>
<stop offset="1" stop-color="#2C114D"/>
</radialGradient>
</defs>
</svg>
